<svg width="512" height="512" viewBox="0 0 512 512" fill="none" xmlns="http://www.w3.org/2000/svg">
  <rect width="512" height="512" rx="112" fill="url(#bg)"/>
  <rect x="96" y="96" width="320" height="320" rx="68" fill="#0B1020" stroke="#5B8CFF" stroke-width="16"/>

  <!-- chip pins -->
  <g stroke="#7EA3FF" stroke-width="12" stroke-linecap="round">
    <path d="M160 62V96"/>
    <path d="M224 62V96"/>
    <path d="M288 62V96"/>
    <path d="M352 62V96"/>

    <path d="M160 416V450"/>
    <path d="M224 416V450"/>
    <path d="M288 416V450"/>
    <path d="M352 416V450"/>

    <path d="M62 160H96"/>
    <path d="M62 224H96"/>
    <path d="M62 288H96"/>
    <path d="M62 352H96"/>

    <path d="M416 160H450"/>
    <path d="M416 224H450"/>
    <path d="M416 288H450"/>
    <path d="M416 352H450"/>
  </g>

  <!-- brain silhouette inside chip -->
  <path d="M256 148C276.435 148 293 164.565 293 185V191.5C307.635 197.004 318 211.124 318 227.5C318 236.882 314.601 245.472 308.965 252.111C312.153 257.275 314 263.364 314 269.875C314 288.722 298.722 304 279.875 304H232.125C213.278 304 198 288.722 198 269.875C198 263.364 199.847 257.275 203.035 252.111C197.399 245.472 194 236.882 194 227.5C194 211.124 204.365 197.004 219 191.5V185C219 164.565 235.565 148 256 148Z" fill="url(#brain)"/>
  <path d="M256 160V291" stroke="#DDF3FF" stroke-width="10" stroke-linecap="round"/>
  <path d="M230 188C239 194 244 205 244 216" stroke="#DDF3FF" stroke-width="8" stroke-linecap="round"/>
  <path d="M282 188C273 194 268 205 268 216" stroke="#DDF3FF" stroke-width="8" stroke-linecap="round"/>
  <path d="M224 243C234 247 241 256 243 266" stroke="#DDF3FF" stroke-width="8" stroke-linecap="round"/>
  <path d="M288 243C278 247 271 256 269 266" stroke="#DDF3FF" stroke-width="8" stroke-linecap="round"/>

  <defs>
    <linearGradient id="bg" x1="56" y1="40" x2="474" y2="476" gradientUnits="userSpaceOnUse">
      <stop stop-color="#0B5FFF"/>
      <stop offset="1" stop-color="#00B8D9"/>
    </linearGradient>
    <linearGradient id="brain" x1="194" y1="148" x2="318" y2="304" gradientUnits="userSpaceOnUse">
      <stop stop-color="#7AF7FF"/>
      <stop offset="1" stop-color="#68A0FF"/>
    </linearGradient>
  </defs>
</svg>
